<mxfile host="Electron" modified="2023-06-05T22:51:29.736Z" agent="Mozilla/5.0 (Windows NT 10.0; Win64; x64) AppleWebKit/537.36 (KHTML, like Gecko) draw.io/21.2.8 Chrome/112.0.5615.165 Electron/24.2.0 Safari/537.36" etag="3BL8i-6nkLJ1_S3HeXHz" version="21.2.8" type="device">
  <diagram name="Cloud Shoes" id="-37fiKzTfTFrvlBXJHoI">
    <mxGraphModel dx="1793" dy="1045" grid="0" gridSize="10" guides="1" tooltips="1" connect="1" arrows="1" fold="1" page="1" pageScale="1" pageWidth="1654" pageHeight="1169" math="0" shadow="0">
      <root>
        <mxCell id="0" />
        <mxCell id="1" parent="0" />
        <mxCell id="iRO7OTy0QqycGShimGxW-48" value="" style="group" parent="1" vertex="1" connectable="0">
          <mxGeometry x="118.25" y="1256" width="194" height="127" as="geometry" />
        </mxCell>
        <mxCell id="iRO7OTy0QqycGShimGxW-43" value="" style="rounded=0;whiteSpace=wrap;html=1;fillColor=#f5f5f5;fontColor=#333333;strokeColor=#000000;fillStyle=auto;opacity=50;dashed=1;dashPattern=1 1;strokeWidth=2;" parent="iRO7OTy0QqycGShimGxW-48" vertex="1">
          <mxGeometry width="194" height="127" as="geometry" />
        </mxCell>
        <mxCell id="iRO7OTy0QqycGShimGxW-37" value="" style="group" parent="iRO7OTy0QqycGShimGxW-48" vertex="1" connectable="0">
          <mxGeometry x="37" y="43" width="55" height="65" as="geometry" />
        </mxCell>
        <mxCell id="iRO7OTy0QqycGShimGxW-38" value="" style="image;aspect=fixed;html=1;points=[];align=center;fontSize=12;image=img/lib/azure2/compute/Virtual_Machine.svg;" parent="iRO7OTy0QqycGShimGxW-37" vertex="1">
          <mxGeometry x="6.469999999999743" width="42.05" height="39" as="geometry" />
        </mxCell>
        <mxCell id="iRO7OTy0QqycGShimGxW-39" value="Clients" style="text;html=1;strokeColor=none;fillColor=none;align=center;verticalAlign=middle;whiteSpace=wrap;rounded=0;" parent="iRO7OTy0QqycGShimGxW-37" vertex="1">
          <mxGeometry y="47" width="55" height="18" as="geometry" />
        </mxCell>
        <mxCell id="iRO7OTy0QqycGShimGxW-45" value="" style="group" parent="iRO7OTy0QqycGShimGxW-48" vertex="1" connectable="0">
          <mxGeometry x="107" y="41" width="55" height="65" as="geometry" />
        </mxCell>
        <mxCell id="iRO7OTy0QqycGShimGxW-41" value="" style="sketch=0;aspect=fixed;pointerEvents=1;shadow=0;dashed=0;html=1;strokeColor=none;labelPosition=center;verticalLabelPosition=bottom;verticalAlign=top;align=center;fillColor=#5b6167;shape=mxgraph.mscae.enterprise.gateway" parent="iRO7OTy0QqycGShimGxW-45" vertex="1">
          <mxGeometry x="6.8700000000000045" y="3" width="39.92805755395683" height="39.92805755395683" as="geometry" />
        </mxCell>
        <mxCell id="iRO7OTy0QqycGShimGxW-42" value="Gateway" style="text;html=1;strokeColor=none;fillColor=none;align=center;verticalAlign=middle;whiteSpace=wrap;rounded=0;" parent="iRO7OTy0QqycGShimGxW-45" vertex="1">
          <mxGeometry y="50" width="55" height="18" as="geometry" />
        </mxCell>
        <mxCell id="iRO7OTy0QqycGShimGxW-46" value="" style="rounded=0;whiteSpace=wrap;html=1;fillColor=none;strokeColor=#949494;dashed=1;strokeWidth=2;" parent="1" vertex="1">
          <mxGeometry x="16" y="1081" width="337" height="316" as="geometry" />
        </mxCell>
        <mxCell id="mcqfTMUdZoglB1hwvuhl-13" value="" style="rounded=0;whiteSpace=wrap;html=1;fillColor=none;strokeColor=#32bedd;strokeWidth=2;" parent="1" vertex="1">
          <mxGeometry x="434" y="568" width="1194" height="1231" as="geometry" />
        </mxCell>
        <mxCell id="iRO7OTy0QqycGShimGxW-1" value="" style="rounded=0;whiteSpace=wrap;html=1;fillColor=none;strokeColor=#00994D;dashed=1;strokeWidth=2;" parent="1" vertex="1">
          <mxGeometry x="554.25" y="1081" width="402" height="316" as="geometry" />
        </mxCell>
        <mxCell id="jFYhZBc2v5GlWPGSJoHk-2" value="" style="group" parent="1" vertex="1" connectable="0">
          <mxGeometry x="764.25" y="1248" width="186.10000000000002" height="134" as="geometry" />
        </mxCell>
        <mxCell id="iRO7OTy0QqycGShimGxW-12" value="" style="rounded=0;whiteSpace=wrap;html=1;fillColor=#f5f5f5;fontColor=#333333;strokeColor=#000000;fillStyle=auto;opacity=50;dashed=1;dashPattern=1 1;strokeWidth=2;" parent="jFYhZBc2v5GlWPGSJoHk-2" vertex="1">
          <mxGeometry y="3" width="173" height="131" as="geometry" />
        </mxCell>
        <mxCell id="iRO7OTy0QqycGShimGxW-13" value="Sub-Hub01&lt;br&gt;10.0.1.0/24" style="text;html=1;strokeColor=none;fillColor=none;align=left;verticalAlign=middle;whiteSpace=wrap;rounded=0;" parent="jFYhZBc2v5GlWPGSJoHk-2" vertex="1">
          <mxGeometry x="3.5" y="11" width="89.5" height="19" as="geometry" />
        </mxCell>
        <mxCell id="iRO7OTy0QqycGShimGxW-14" value="" style="image;aspect=fixed;html=1;points=[];align=center;fontSize=12;image=img/lib/azure2/networking/Network_Security_Groups.svg;" parent="jFYhZBc2v5GlWPGSJoHk-2" vertex="1">
          <mxGeometry x="159.75" y="-5" width="26.35" height="32" as="geometry" />
        </mxCell>
        <mxCell id="HfVjvq3u5Bbp-fqQVIqM-1" value="" style="group" parent="jFYhZBc2v5GlWPGSJoHk-2" vertex="1" connectable="0">
          <mxGeometry x="8.75" y="55" width="55" height="65" as="geometry" />
        </mxCell>
        <mxCell id="HfVjvq3u5Bbp-fqQVIqM-2" value="" style="image;aspect=fixed;html=1;points=[];align=center;fontSize=12;image=img/lib/azure2/compute/Virtual_Machine.svg;" parent="HfVjvq3u5Bbp-fqQVIqM-1" vertex="1">
          <mxGeometry x="6.469999999999743" width="42.05" height="39" as="geometry" />
        </mxCell>
        <mxCell id="HfVjvq3u5Bbp-fqQVIqM-3" value="AD/DNS" style="text;html=1;strokeColor=none;fillColor=none;align=center;verticalAlign=middle;whiteSpace=wrap;rounded=0;" parent="HfVjvq3u5Bbp-fqQVIqM-1" vertex="1">
          <mxGeometry y="47" width="55" height="18" as="geometry" />
        </mxCell>
        <mxCell id="iRO7OTy0QqycGShimGxW-6" value="" style="group" parent="1" vertex="1" connectable="0">
          <mxGeometry x="572.53" y="1251" width="173" height="130" as="geometry" />
        </mxCell>
        <mxCell id="iRO7OTy0QqycGShimGxW-7" value="" style="rounded=0;whiteSpace=wrap;html=1;fillColor=#f5f5f5;fontColor=#333333;strokeColor=#000000;fillStyle=auto;opacity=50;dashed=1;dashPattern=1 1;strokeWidth=2;" parent="iRO7OTy0QqycGShimGxW-6" vertex="1">
          <mxGeometry width="173" height="130" as="geometry" />
        </mxCell>
        <mxCell id="iRO7OTy0QqycGShimGxW-10" value="GatewaySubnet&lt;br&gt;10.0.240.0/24" style="text;html=1;strokeColor=none;fillColor=none;align=left;verticalAlign=middle;whiteSpace=wrap;rounded=0;" parent="iRO7OTy0QqycGShimGxW-6" vertex="1">
          <mxGeometry x="6.75" y="9" width="89.5" height="19" as="geometry" />
        </mxCell>
        <mxCell id="jFYhZBc2v5GlWPGSJoHk-3" value="" style="group" parent="iRO7OTy0QqycGShimGxW-6" vertex="1" connectable="0">
          <mxGeometry x="99" y="45" width="55" height="70.5" as="geometry" />
        </mxCell>
        <mxCell id="iRO7OTy0QqycGShimGxW-8" value="" style="image;sketch=0;aspect=fixed;html=1;points=[];align=center;fontSize=12;image=img/lib/mscae/VPN_Gateway.svg;" parent="jFYhZBc2v5GlWPGSJoHk-3" vertex="1">
          <mxGeometry x="5" width="45" height="50" as="geometry" />
        </mxCell>
        <mxCell id="iRO7OTy0QqycGShimGxW-9" value="VNG01" style="text;html=1;strokeColor=none;fillColor=none;align=center;verticalAlign=middle;whiteSpace=wrap;rounded=0;" parent="jFYhZBc2v5GlWPGSJoHk-3" vertex="1">
          <mxGeometry y="51.5" width="55" height="19" as="geometry" />
        </mxCell>
        <mxCell id="iRO7OTy0QqycGShimGxW-49" value="" style="rounded=0;whiteSpace=wrap;html=1;fillColor=none;strokeColor=#00994D;dashed=1;strokeWidth=2;" parent="1" vertex="1">
          <mxGeometry x="998" y="649" width="596" height="354" as="geometry" />
        </mxCell>
        <mxCell id="iRO7OTy0QqycGShimGxW-50" value="" style="rounded=0;whiteSpace=wrap;html=1;fillColor=none;strokeColor=#00994D;dashed=1;strokeWidth=2;" parent="1" vertex="1">
          <mxGeometry x="999.18" y="1414" width="596" height="366" as="geometry" />
        </mxCell>
        <mxCell id="iRO7OTy0QqycGShimGxW-112" value="" style="rounded=0;whiteSpace=wrap;html=1;fillColor=#63f55b;strokeColor=none;fillStyle=auto;opacity=40;dashed=1;dashPattern=1 1;strokeWidth=2;" parent="1" vertex="1">
          <mxGeometry x="1293" y="1429" width="290" height="165" as="geometry" />
        </mxCell>
        <mxCell id="iRO7OTy0QqycGShimGxW-113" value="" style="rounded=0;whiteSpace=wrap;html=1;fillColor=#dfaca9;strokeColor=none;fillStyle=auto;opacity=60;dashed=1;dashPattern=1 1;strokeWidth=2;" parent="1" vertex="1">
          <mxGeometry x="1293" y="1597" width="290" height="172" as="geometry" />
        </mxCell>
        <mxCell id="kLqBszuAOoGfDPWovw_3-11" value="" style="shape=mxgraph.cisco.buildings.generic_building;html=1;pointerEvents=1;dashed=0;fillColor=#5b6167;strokeColor=#ffffff;strokeWidth=2;verticalLabelPosition=bottom;verticalAlign=top;align=center;outlineConnect=0;" parent="1" vertex="1">
          <mxGeometry x="41.75" y="1197" width="53" height="84" as="geometry" />
        </mxCell>
        <mxCell id="iRO7OTy0QqycGShimGxW-123" style="edgeStyle=orthogonalEdgeStyle;rounded=0;orthogonalLoop=1;jettySize=auto;html=1;entryX=0;entryY=0.5;entryDx=0;entryDy=0;" parent="1" source="iRO7OTy0QqycGShimGxW-1" target="iRO7OTy0QqycGShimGxW-49" edge="1">
          <mxGeometry relative="1" as="geometry">
            <Array as="points">
              <mxPoint x="740" y="828" />
            </Array>
          </mxGeometry>
        </mxCell>
        <mxCell id="mcqfTMUdZoglB1hwvuhl-4" value="Subscription" style="edgeLabel;html=1;align=center;verticalAlign=middle;resizable=0;points=[];fontSize=21;" parent="iRO7OTy0QqycGShimGxW-123" vertex="1" connectable="0">
          <mxGeometry x="0.4569" y="2" relative="1" as="geometry">
            <mxPoint x="-316" y="-354" as="offset" />
          </mxGeometry>
        </mxCell>
        <mxCell id="iRO7OTy0QqycGShimGxW-124" style="edgeStyle=orthogonalEdgeStyle;rounded=0;orthogonalLoop=1;jettySize=auto;html=1;" parent="1" source="iRO7OTy0QqycGShimGxW-1" target="iRO7OTy0QqycGShimGxW-50" edge="1">
          <mxGeometry relative="1" as="geometry">
            <Array as="points">
              <mxPoint x="742" y="1604" />
            </Array>
          </mxGeometry>
        </mxCell>
        <mxCell id="mcqfTMUdZoglB1hwvuhl-3" value="Peering" style="edgeLabel;html=1;align=center;verticalAlign=middle;resizable=0;points=[];fontSize=14;" parent="iRO7OTy0QqycGShimGxW-124" vertex="1" connectable="0">
          <mxGeometry x="0.3232" y="1" relative="1" as="geometry">
            <mxPoint as="offset" />
          </mxGeometry>
        </mxCell>
        <mxCell id="iRO7OTy0QqycGShimGxW-125" style="edgeStyle=orthogonalEdgeStyle;rounded=0;orthogonalLoop=1;jettySize=auto;html=1;entryX=1;entryY=0.5;entryDx=0;entryDy=0;entryPerimeter=0;" parent="1" source="iRO7OTy0QqycGShimGxW-4" target="iRO7OTy0QqycGShimGxW-41" edge="1">
          <mxGeometry relative="1" as="geometry" />
        </mxCell>
        <mxCell id="mcqfTMUdZoglB1hwvuhl-2" value="VPN S2S" style="edgeLabel;html=1;align=center;verticalAlign=middle;resizable=0;points=[];fontSize=14;" parent="iRO7OTy0QqycGShimGxW-125" vertex="1" connectable="0">
          <mxGeometry x="-0.1329" y="-3" relative="1" as="geometry">
            <mxPoint x="31" as="offset" />
          </mxGeometry>
        </mxCell>
        <mxCell id="iRO7OTy0QqycGShimGxW-2" value="" style="image;aspect=fixed;html=1;points=[];align=center;fontSize=12;image=img/lib/azure2/networking/Virtual_Networks.svg;" parent="1" vertex="1">
          <mxGeometry x="536" y="1062" width="67" height="40" as="geometry" />
        </mxCell>
        <mxCell id="iRO7OTy0QqycGShimGxW-3" value="VNET-HUB&lt;br&gt;10.0.0.0/16" style="text;html=1;strokeColor=none;fillColor=none;align=center;verticalAlign=middle;whiteSpace=wrap;rounded=0;" parent="1" vertex="1">
          <mxGeometry x="522.25" y="1022" width="94.5" height="30" as="geometry" />
        </mxCell>
        <mxCell id="iRO7OTy0QqycGShimGxW-16" value="" style="group" parent="1" vertex="1" connectable="0">
          <mxGeometry x="764.25" y="1039" width="186.10000000000002" height="203" as="geometry" />
        </mxCell>
        <mxCell id="jFYhZBc2v5GlWPGSJoHk-4" value="" style="group" parent="iRO7OTy0QqycGShimGxW-16" vertex="1" connectable="0">
          <mxGeometry x="-192" y="73" width="173" height="130" as="geometry" />
        </mxCell>
        <mxCell id="iRO7OTy0QqycGShimGxW-17" value="" style="rounded=0;whiteSpace=wrap;html=1;fillColor=#f5f5f5;fontColor=#333333;strokeColor=#000000;fillStyle=auto;opacity=50;dashed=1;dashPattern=1 1;strokeWidth=2;" parent="jFYhZBc2v5GlWPGSJoHk-4" vertex="1">
          <mxGeometry width="173" height="130" as="geometry" />
        </mxCell>
        <mxCell id="iRO7OTy0QqycGShimGxW-18" value="AzureFirewallSubnet&lt;br&gt;10.0.250.0/24" style="text;html=1;strokeColor=none;fillColor=none;align=left;verticalAlign=middle;whiteSpace=wrap;rounded=0;" parent="jFYhZBc2v5GlWPGSJoHk-4" vertex="1">
          <mxGeometry x="3.5" y="9" width="89.5" height="19" as="geometry" />
        </mxCell>
        <mxCell id="iRO7OTy0QqycGShimGxW-24" value="" style="image;sketch=0;aspect=fixed;html=1;points=[];align=center;fontSize=12;image=img/lib/mscae/Azure_Firewall.svg;" parent="jFYhZBc2v5GlWPGSJoHk-4" vertex="1">
          <mxGeometry x="68.04999999999995" y="40" width="50" height="50" as="geometry" />
        </mxCell>
        <mxCell id="iRO7OTy0QqycGShimGxW-25" value="FW01" style="text;html=1;strokeColor=none;fillColor=none;align=center;verticalAlign=middle;whiteSpace=wrap;rounded=0;" parent="jFYhZBc2v5GlWPGSJoHk-4" vertex="1">
          <mxGeometry x="65.54999999999995" y="90" width="55" height="19" as="geometry" />
        </mxCell>
        <mxCell id="jFYhZBc2v5GlWPGSJoHk-6" value="pvt01&lt;br&gt;10.0.1.250" style="text;html=1;strokeColor=none;fillColor=none;align=center;verticalAlign=middle;whiteSpace=wrap;rounded=0;" parent="iRO7OTy0QqycGShimGxW-16" vertex="1">
          <mxGeometry x="62.299999999999955" y="162.5" width="55" height="19" as="geometry" />
        </mxCell>
        <mxCell id="iRO7OTy0QqycGShimGxW-26" value="" style="group" parent="1" vertex="1" connectable="0">
          <mxGeometry x="598.25" y="1295" width="55" height="71" as="geometry" />
        </mxCell>
        <mxCell id="iRO7OTy0QqycGShimGxW-4" value="" style="image;sketch=0;aspect=fixed;html=1;points=[];align=center;fontSize=12;image=img/lib/mscae/Local_Network_Gateways.svg;" parent="iRO7OTy0QqycGShimGxW-26" vertex="1">
          <mxGeometry x="2.5" width="50" height="50" as="geometry" />
        </mxCell>
        <mxCell id="iRO7OTy0QqycGShimGxW-5" value="LNG01" style="text;html=1;strokeColor=none;fillColor=none;align=center;verticalAlign=middle;whiteSpace=wrap;rounded=0;" parent="iRO7OTy0QqycGShimGxW-26" vertex="1">
          <mxGeometry y="53" width="55" height="18" as="geometry" />
        </mxCell>
        <mxCell id="iRO7OTy0QqycGShimGxW-47" value="" style="group" parent="1" vertex="1" connectable="0">
          <mxGeometry x="118.25" y="1099" width="194" height="127" as="geometry" />
        </mxCell>
        <mxCell id="iRO7OTy0QqycGShimGxW-30" value="" style="rounded=0;whiteSpace=wrap;html=1;fillColor=#f5f5f5;fontColor=#333333;strokeColor=#000000;fillStyle=auto;opacity=50;dashed=1;dashPattern=1 1;strokeWidth=2;" parent="iRO7OTy0QqycGShimGxW-47" vertex="1">
          <mxGeometry width="194" height="127" as="geometry" />
        </mxCell>
        <mxCell id="iRO7OTy0QqycGShimGxW-31" value="" style="group" parent="iRO7OTy0QqycGShimGxW-47" vertex="1" connectable="0">
          <mxGeometry x="110.75" y="6" width="72.62" height="105.5" as="geometry" />
        </mxCell>
        <mxCell id="iRO7OTy0QqycGShimGxW-32" value="" style="sketch=0;aspect=fixed;pointerEvents=1;shadow=0;dashed=0;html=1;strokeColor=none;labelPosition=center;verticalLabelPosition=bottom;verticalAlign=top;align=center;fillColor=#4aa8ec;shape=mxgraph.mscae.enterprise.windows_server;gradientColor=#007FFF;gradientDirection=north;" parent="iRO7OTy0QqycGShimGxW-31" vertex="1">
          <mxGeometry x="11" width="61.62" height="79" as="geometry" />
        </mxCell>
        <mxCell id="iRO7OTy0QqycGShimGxW-33" value="Azure &lt;br&gt;AD Connect" style="text;html=1;strokeColor=none;fillColor=none;align=center;verticalAlign=middle;whiteSpace=wrap;rounded=0;" parent="iRO7OTy0QqycGShimGxW-31" vertex="1">
          <mxGeometry y="89.5" width="70" height="18" as="geometry" />
        </mxCell>
        <mxCell id="iRO7OTy0QqycGShimGxW-34" value="" style="group" parent="iRO7OTy0QqycGShimGxW-47" vertex="1" connectable="0">
          <mxGeometry x="7.75" y="6" width="66.62" height="109" as="geometry" />
        </mxCell>
        <mxCell id="iRO7OTy0QqycGShimGxW-35" value="" style="sketch=0;aspect=fixed;pointerEvents=1;shadow=0;dashed=0;html=1;strokeColor=none;labelPosition=center;verticalLabelPosition=bottom;verticalAlign=top;align=center;fillColor=#4aa8ec;shape=mxgraph.mscae.enterprise.windows_server;gradientColor=#007FFF;gradientDirection=north;" parent="iRO7OTy0QqycGShimGxW-34" vertex="1">
          <mxGeometry x="5" width="61.62" height="79" as="geometry" />
        </mxCell>
        <mxCell id="iRO7OTy0QqycGShimGxW-36" value="Domain&lt;br&gt;Controller" style="text;html=1;strokeColor=none;fillColor=none;align=center;verticalAlign=middle;whiteSpace=wrap;rounded=0;" parent="iRO7OTy0QqycGShimGxW-34" vertex="1">
          <mxGeometry y="91" width="55" height="18" as="geometry" />
        </mxCell>
        <mxCell id="iRO7OTy0QqycGShimGxW-106" value="" style="endArrow=classic;html=1;rounded=0;exitX=0.985;exitY=0.489;exitDx=0;exitDy=0;exitPerimeter=0;strokeWidth=2;fillColor=#fff2cc;strokeColor=#d6b656;entryX=0;entryY=0.5;entryDx=0;entryDy=0;" parent="1" source="iRO7OTy0QqycGShimGxW-110" target="iRO7OTy0QqycGShimGxW-112" edge="1">
          <mxGeometry width="50" height="50" relative="1" as="geometry">
            <mxPoint x="1199.5" y="1621.1999999999998" as="sourcePoint" />
            <mxPoint x="1279.5" y="1472.5" as="targetPoint" />
          </mxGeometry>
        </mxCell>
        <mxCell id="iRO7OTy0QqycGShimGxW-107" value="" style="endArrow=classic;html=1;rounded=0;exitX=0.985;exitY=0.489;exitDx=0;exitDy=0;exitPerimeter=0;strokeWidth=2;fillColor=#fff2cc;strokeColor=#d6b656;entryX=0;entryY=0.5;entryDx=0;entryDy=0;" parent="1" source="iRO7OTy0QqycGShimGxW-110" target="iRO7OTy0QqycGShimGxW-113" edge="1">
          <mxGeometry width="50" height="50" relative="1" as="geometry">
            <mxPoint x="1199.5" y="1624.1999999999998" as="sourcePoint" />
            <mxPoint x="1279.5" y="1717.5" as="targetPoint" />
          </mxGeometry>
        </mxCell>
        <mxCell id="iRO7OTy0QqycGShimGxW-108" value="" style="group" parent="1" vertex="1" connectable="0">
          <mxGeometry x="1091" y="1436" width="126" height="299" as="geometry" />
        </mxCell>
        <mxCell id="iRO7OTy0QqycGShimGxW-109" value="" style="rounded=1;whiteSpace=wrap;html=1;fillColor=#c1fbbd;strokeColor=none;" parent="iRO7OTy0QqycGShimGxW-108" vertex="1">
          <mxGeometry x="47.5" y="39" width="31" height="260" as="geometry" />
        </mxCell>
        <mxCell id="iRO7OTy0QqycGShimGxW-110" value="" style="image;sketch=0;aspect=fixed;html=1;points=[];align=center;fontSize=12;image=img/lib/mscae/Load_Balancer_feature.svg;" parent="iRO7OTy0QqycGShimGxW-108" vertex="1">
          <mxGeometry x="36.5" y="141" width="53" height="53" as="geometry" />
        </mxCell>
        <mxCell id="iRO7OTy0QqycGShimGxW-111" value="Internal Load Balancer&lt;br&gt;lb-backend-02" style="text;html=1;strokeColor=none;fillColor=none;align=center;verticalAlign=middle;whiteSpace=wrap;rounded=0;" parent="iRO7OTy0QqycGShimGxW-108" vertex="1">
          <mxGeometry width="126" height="30" as="geometry" />
        </mxCell>
        <mxCell id="iRO7OTy0QqycGShimGxW-114" value="Backend-Pool&lt;br&gt;Database" style="text;html=1;strokeColor=none;fillColor=none;align=center;verticalAlign=middle;whiteSpace=wrap;rounded=0;" parent="1" vertex="1">
          <mxGeometry x="1494.6" y="1497.6100000000001" width="81" height="31.77" as="geometry" />
        </mxCell>
        <mxCell id="iRO7OTy0QqycGShimGxW-115" value="Backend-Pool&lt;br&gt;Integration" style="text;html=1;strokeColor=none;fillColor=none;align=center;verticalAlign=middle;whiteSpace=wrap;rounded=0;" parent="1" vertex="1">
          <mxGeometry x="1496.12" y="1661" width="81" height="31.77" as="geometry" />
        </mxCell>
        <mxCell id="iRO7OTy0QqycGShimGxW-128" style="edgeStyle=orthogonalEdgeStyle;rounded=0;orthogonalLoop=1;jettySize=auto;html=1;entryX=0;entryY=0.655;entryDx=0;entryDy=0;entryPerimeter=0;" parent="1" source="iRO7OTy0QqycGShimGxW-32" target="iRO7OTy0QqycGShimGxW-126" edge="1">
          <mxGeometry relative="1" as="geometry">
            <Array as="points">
              <mxPoint x="261" y="742" />
            </Array>
          </mxGeometry>
        </mxCell>
        <mxCell id="mcqfTMUdZoglB1hwvuhl-10" value="AD Sync" style="edgeLabel;html=1;align=center;verticalAlign=middle;resizable=0;points=[];fontSize=14;" parent="iRO7OTy0QqycGShimGxW-128" vertex="1" connectable="0">
          <mxGeometry x="0.3557" y="-2" relative="1" as="geometry">
            <mxPoint x="108" as="offset" />
          </mxGeometry>
        </mxCell>
        <mxCell id="iRO7OTy0QqycGShimGxW-130" value="" style="group" parent="1" vertex="1" connectable="0">
          <mxGeometry x="999" y="1046" width="595" height="310.4" as="geometry" />
        </mxCell>
        <mxCell id="iRO7OTy0QqycGShimGxW-131" value="" style="rounded=1;whiteSpace=wrap;html=1;fillColor=#dae8fc;strokeColor=none;" parent="iRO7OTy0QqycGShimGxW-130" vertex="1">
          <mxGeometry x="11" y="9" width="595" height="310.39999999999986" as="geometry" />
        </mxCell>
        <mxCell id="iRO7OTy0QqycGShimGxW-132" value="" style="image;aspect=fixed;html=1;points=[];align=center;fontSize=12;image=img/lib/azure2/storage/Recovery_Services_Vaults.svg;" parent="iRO7OTy0QqycGShimGxW-130" vertex="1">
          <mxGeometry x="261.03304013194065" y="101.78568364611257" width="57.41983914209113" height="49.9302949061662" as="geometry" />
        </mxCell>
        <mxCell id="iRO7OTy0QqycGShimGxW-133" value="" style="image;aspect=fixed;html=1;points=[];align=center;fontSize=12;image=img/lib/azure2/storage/Storage_Accounts.svg;" parent="iRO7OTy0QqycGShimGxW-130" vertex="1">
          <mxGeometry x="95.86536558548657" y="105.11436997319024" width="54.09115281501337" height="43.2729222520107" as="geometry" />
        </mxCell>
        <mxCell id="iRO7OTy0QqycGShimGxW-134" value="" style="image;aspect=fixed;html=1;points=[];align=center;fontSize=12;image=img/lib/azure2/management_governance/Monitor.svg;" parent="iRO7OTy0QqycGShimGxW-130" vertex="1">
          <mxGeometry x="95.86536558548657" y="225.28273458445034" width="53.25898123324395" height="53.25898123324395" as="geometry" />
        </mxCell>
        <mxCell id="iRO7OTy0QqycGShimGxW-135" value="" style="image;aspect=fixed;html=1;points=[];align=center;fontSize=12;image=img/lib/azure2/devops/Application_Insights.svg;" parent="iRO7OTy0QqycGShimGxW-130" vertex="1">
          <mxGeometry x="278.8312809235845" y="226.11490616621978" width="36.61554959785521" height="52.426809651474514" as="geometry" />
        </mxCell>
        <mxCell id="iRO7OTy0QqycGShimGxW-136" value="" style="image;aspect=fixed;html=1;points=[];align=center;fontSize=12;image=img/lib/azure2/security/Key_Vaults.svg;" parent="iRO7OTy0QqycGShimGxW-130" vertex="1">
          <mxGeometry x="441.8631665750412" y="97.00069705093821" width="56.58766756032169" height="56.58766756032169" as="geometry" />
        </mxCell>
        <mxCell id="iRO7OTy0QqycGShimGxW-137" value="" style="image;aspect=fixed;html=1;points=[];align=center;fontSize=12;image=img/lib/azure2/networking/DNS_Zones.svg;" parent="iRO7OTy0QqycGShimGxW-130" vertex="1">
          <mxGeometry x="452.5421110500275" y="225.28273458445034" width="53.25898123324395" height="53.25898123324395" as="geometry" />
        </mxCell>
        <mxCell id="iRO7OTy0QqycGShimGxW-138" value="Azure Services" style="text;html=1;strokeColor=none;fillColor=none;align=center;verticalAlign=middle;whiteSpace=wrap;rounded=0;fontSize=16;" parent="iRO7OTy0QqycGShimGxW-130" vertex="1">
          <mxGeometry x="180.73285406182603" y="8.999999999999996" width="271.8093457943925" height="24.96999999999999" as="geometry" />
        </mxCell>
        <mxCell id="jFYhZBc2v5GlWPGSJoHk-8" value="cloudshoesimages01" style="text;html=1;strokeColor=none;fillColor=none;align=center;verticalAlign=middle;whiteSpace=wrap;rounded=0;" parent="iRO7OTy0QqycGShimGxW-130" vertex="1">
          <mxGeometry x="95.86999999999989" y="151.72000000000003" width="55" height="19" as="geometry" />
        </mxCell>
        <mxCell id="jFYhZBc2v5GlWPGSJoHk-9" value="rsv01" style="text;html=1;strokeColor=none;fillColor=none;align=center;verticalAlign=middle;whiteSpace=wrap;rounded=0;" parent="iRO7OTy0QqycGShimGxW-130" vertex="1">
          <mxGeometry x="263.4499999999998" y="151.72000000000003" width="55" height="19" as="geometry" />
        </mxCell>
        <mxCell id="jFYhZBc2v5GlWPGSJoHk-10" value="akv01" style="text;html=1;strokeColor=none;fillColor=none;align=center;verticalAlign=middle;whiteSpace=wrap;rounded=0;" parent="iRO7OTy0QqycGShimGxW-130" vertex="1">
          <mxGeometry x="442.65999999999985" y="153.58999999999992" width="55" height="19" as="geometry" />
        </mxCell>
        <mxCell id="rl9jqkYLnGCRckDXOoiw-4" value="Public zone" style="text;html=1;strokeColor=none;fillColor=none;align=center;verticalAlign=middle;whiteSpace=wrap;rounded=0;" vertex="1" parent="iRO7OTy0QqycGShimGxW-130">
          <mxGeometry x="440.94" y="278.54" width="76.46" height="19" as="geometry" />
        </mxCell>
        <mxCell id="rl9jqkYLnGCRckDXOoiw-8" style="edgeStyle=orthogonalEdgeStyle;rounded=0;orthogonalLoop=1;jettySize=auto;html=1;" edge="1" parent="iRO7OTy0QqycGShimGxW-130" source="rl9jqkYLnGCRckDXOoiw-7" target="iRO7OTy0QqycGShimGxW-136">
          <mxGeometry relative="1" as="geometry" />
        </mxCell>
        <mxCell id="rl9jqkYLnGCRckDXOoiw-7" value="" style="image;aspect=fixed;html=1;points=[];align=center;fontSize=12;image=img/lib/azure2/app_services/App_Service_Certificates.svg;" vertex="1" parent="iRO7OTy0QqycGShimGxW-130">
          <mxGeometry x="505.79999999999995" y="30" width="70" height="64" as="geometry" />
        </mxCell>
        <mxCell id="rl9jqkYLnGCRckDXOoiw-9" value="Certificate HTTPS" style="text;html=1;strokeColor=none;fillColor=none;align=center;verticalAlign=middle;whiteSpace=wrap;rounded=0;" vertex="1" parent="iRO7OTy0QqycGShimGxW-130">
          <mxGeometry x="512.8" y="5" width="56" height="19" as="geometry" />
        </mxCell>
        <mxCell id="iRO7OTy0QqycGShimGxW-139" value="On-Premises" style="text;html=1;strokeColor=none;fillColor=none;align=center;verticalAlign=middle;whiteSpace=wrap;rounded=0;" parent="1" vertex="1">
          <mxGeometry x="32.12" y="1288" width="72.25" height="18" as="geometry" />
        </mxCell>
        <mxCell id="u3xtsCmXSuKDjjHytYBa-1" value="" style="group" parent="1" vertex="1" connectable="0">
          <mxGeometry x="1337" y="1419" width="146" height="172" as="geometry" />
        </mxCell>
        <mxCell id="iRO7OTy0QqycGShimGxW-81" value="" style="rounded=1;whiteSpace=wrap;html=1;fillColor=default;fontColor=#ffffff;strokeColor=#006EAF;" parent="u3xtsCmXSuKDjjHytYBa-1" vertex="1">
          <mxGeometry y="19" width="146" height="48" as="geometry" />
        </mxCell>
        <mxCell id="iRO7OTy0QqycGShimGxW-82" value="" style="rounded=1;whiteSpace=wrap;html=1;fillColor=default;fontColor=#ffffff;strokeColor=#006EAF;" parent="u3xtsCmXSuKDjjHytYBa-1" vertex="1">
          <mxGeometry x="1" y="119" width="145" height="48" as="geometry" />
        </mxCell>
        <mxCell id="iRO7OTy0QqycGShimGxW-83" value="" style="rounded=1;whiteSpace=wrap;html=1;fillColor=default;fontColor=#ffffff;strokeColor=#006EAF;" parent="u3xtsCmXSuKDjjHytYBa-1" vertex="1">
          <mxGeometry y="69" width="146" height="48" as="geometry" />
        </mxCell>
        <mxCell id="iRO7OTy0QqycGShimGxW-84" value="" style="rounded=0;whiteSpace=wrap;html=1;fillColor=#f5f5f5;fontColor=#333333;strokeColor=#000000;fillStyle=auto;dashed=1;dashPattern=1 1;strokeWidth=2;opacity=80;" parent="u3xtsCmXSuKDjjHytYBa-1" vertex="1">
          <mxGeometry x="17" y="13" width="71" height="159" as="geometry" />
        </mxCell>
        <mxCell id="iRO7OTy0QqycGShimGxW-85" value="" style="image;aspect=fixed;html=1;points=[];align=center;fontSize=12;image=img/lib/azure2/networking/Network_Security_Groups.svg;" parent="u3xtsCmXSuKDjjHytYBa-1" vertex="1">
          <mxGeometry x="4" width="26.35" height="32" as="geometry" />
        </mxCell>
        <mxCell id="iRO7OTy0QqycGShimGxW-86" value="" style="image;aspect=fixed;html=1;points=[];align=center;fontSize=12;image=img/lib/azure2/compute/Virtual_Machine.svg;" parent="u3xtsCmXSuKDjjHytYBa-1" vertex="1">
          <mxGeometry x="33.909999999999854" y="75" width="42.05" height="39" as="geometry" />
        </mxCell>
        <mxCell id="iRO7OTy0QqycGShimGxW-87" value="" style="image;aspect=fixed;html=1;points=[];align=center;fontSize=12;image=img/lib/azure2/compute/Virtual_Machine.svg;" parent="u3xtsCmXSuKDjjHytYBa-1" vertex="1">
          <mxGeometry x="34.909999999999854" y="122" width="42.05" height="39" as="geometry" />
        </mxCell>
        <mxCell id="iRO7OTy0QqycGShimGxW-88" value="" style="image;aspect=fixed;html=1;points=[];align=center;fontSize=12;image=img/lib/azure2/compute/Virtual_Machine.svg;" parent="u3xtsCmXSuKDjjHytYBa-1" vertex="1">
          <mxGeometry x="33.909999999999854" y="23" width="42.05" height="39" as="geometry" />
        </mxCell>
        <mxCell id="iRO7OTy0QqycGShimGxW-116" value="Zona 1" style="text;html=1;strokeColor=none;fillColor=none;align=center;verticalAlign=middle;whiteSpace=wrap;rounded=0;" parent="u3xtsCmXSuKDjjHytYBa-1" vertex="1">
          <mxGeometry x="86" y="28" width="60" height="30" as="geometry" />
        </mxCell>
        <mxCell id="iRO7OTy0QqycGShimGxW-117" value="Zona 2" style="text;html=1;strokeColor=none;fillColor=none;align=center;verticalAlign=middle;whiteSpace=wrap;rounded=0;" parent="u3xtsCmXSuKDjjHytYBa-1" vertex="1">
          <mxGeometry x="84" y="74.5" width="60" height="30" as="geometry" />
        </mxCell>
        <mxCell id="iRO7OTy0QqycGShimGxW-118" value="Zona 3" style="text;html=1;strokeColor=none;fillColor=none;align=center;verticalAlign=middle;whiteSpace=wrap;rounded=0;" parent="u3xtsCmXSuKDjjHytYBa-1" vertex="1">
          <mxGeometry x="84" y="127" width="60" height="30" as="geometry" />
        </mxCell>
        <mxCell id="u3xtsCmXSuKDjjHytYBa-2" value="" style="group" parent="1" vertex="1" connectable="0">
          <mxGeometry x="1338" y="1586" width="146.5999999999999" height="172" as="geometry" />
        </mxCell>
        <mxCell id="iRO7OTy0QqycGShimGxW-98" value="" style="rounded=1;whiteSpace=wrap;html=1;fillColor=default;fontColor=#ffffff;strokeColor=#006EAF;" parent="u3xtsCmXSuKDjjHytYBa-2" vertex="1">
          <mxGeometry y="19" width="145" height="48" as="geometry" />
        </mxCell>
        <mxCell id="iRO7OTy0QqycGShimGxW-99" value="" style="rounded=1;whiteSpace=wrap;html=1;fillColor=default;fontColor=#ffffff;strokeColor=#006EAF;" parent="u3xtsCmXSuKDjjHytYBa-2" vertex="1">
          <mxGeometry x="1" y="119" width="145" height="48" as="geometry" />
        </mxCell>
        <mxCell id="iRO7OTy0QqycGShimGxW-100" value="" style="rounded=1;whiteSpace=wrap;html=1;fillColor=default;fontColor=#ffffff;strokeColor=#006EAF;" parent="u3xtsCmXSuKDjjHytYBa-2" vertex="1">
          <mxGeometry y="69" width="146" height="48" as="geometry" />
        </mxCell>
        <mxCell id="iRO7OTy0QqycGShimGxW-101" value="" style="rounded=0;whiteSpace=wrap;html=1;fillColor=#f5f5f5;fontColor=#333333;strokeColor=#000000;fillStyle=auto;dashed=1;dashPattern=1 1;strokeWidth=2;opacity=80;" parent="u3xtsCmXSuKDjjHytYBa-2" vertex="1">
          <mxGeometry x="17" y="13" width="71" height="159" as="geometry" />
        </mxCell>
        <mxCell id="iRO7OTy0QqycGShimGxW-102" value="" style="image;aspect=fixed;html=1;points=[];align=center;fontSize=12;image=img/lib/azure2/networking/Network_Security_Groups.svg;" parent="u3xtsCmXSuKDjjHytYBa-2" vertex="1">
          <mxGeometry x="4" width="26.35" height="32" as="geometry" />
        </mxCell>
        <mxCell id="iRO7OTy0QqycGShimGxW-103" value="" style="image;aspect=fixed;html=1;points=[];align=center;fontSize=12;image=img/lib/azure2/compute/Virtual_Machine.svg;" parent="u3xtsCmXSuKDjjHytYBa-2" vertex="1">
          <mxGeometry x="33.909999999999854" y="75" width="42.05" height="39" as="geometry" />
        </mxCell>
        <mxCell id="iRO7OTy0QqycGShimGxW-104" value="" style="image;aspect=fixed;html=1;points=[];align=center;fontSize=12;image=img/lib/azure2/compute/Virtual_Machine.svg;" parent="u3xtsCmXSuKDjjHytYBa-2" vertex="1">
          <mxGeometry x="34.909999999999854" y="122" width="42.05" height="39" as="geometry" />
        </mxCell>
        <mxCell id="iRO7OTy0QqycGShimGxW-105" value="" style="image;aspect=fixed;html=1;points=[];align=center;fontSize=12;image=img/lib/azure2/compute/Virtual_Machine.svg;" parent="u3xtsCmXSuKDjjHytYBa-2" vertex="1">
          <mxGeometry x="33.909999999999854" y="23" width="42.05" height="39" as="geometry" />
        </mxCell>
        <mxCell id="iRO7OTy0QqycGShimGxW-119" value="Zona 1" style="text;html=1;strokeColor=none;fillColor=none;align=center;verticalAlign=middle;whiteSpace=wrap;rounded=0;" parent="u3xtsCmXSuKDjjHytYBa-2" vertex="1">
          <mxGeometry x="86.59999999999991" y="28.5" width="60" height="30" as="geometry" />
        </mxCell>
        <mxCell id="iRO7OTy0QqycGShimGxW-120" value="Zona 2" style="text;html=1;strokeColor=none;fillColor=none;align=center;verticalAlign=middle;whiteSpace=wrap;rounded=0;" parent="u3xtsCmXSuKDjjHytYBa-2" vertex="1">
          <mxGeometry x="84.59999999999991" y="75" width="60" height="30" as="geometry" />
        </mxCell>
        <mxCell id="iRO7OTy0QqycGShimGxW-121" value="Zona 3" style="text;html=1;strokeColor=none;fillColor=none;align=center;verticalAlign=middle;whiteSpace=wrap;rounded=0;" parent="u3xtsCmXSuKDjjHytYBa-2" vertex="1">
          <mxGeometry x="84.59999999999991" y="127.5" width="60" height="30" as="geometry" />
        </mxCell>
        <mxCell id="u3xtsCmXSuKDjjHytYBa-11" value="sub-database&lt;br&gt;10.0.1.0/24" style="text;html=1;strokeColor=none;fillColor=none;align=left;verticalAlign=middle;whiteSpace=wrap;rounded=0;" parent="1" vertex="1">
          <mxGeometry x="1494.6" y="1447" width="85.4" height="19" as="geometry" />
        </mxCell>
        <mxCell id="u3xtsCmXSuKDjjHytYBa-12" value="sub-integration&lt;br&gt;10.0.1.0/24" style="text;html=1;strokeColor=none;fillColor=none;align=left;verticalAlign=middle;whiteSpace=wrap;rounded=0;" parent="1" vertex="1">
          <mxGeometry x="1494.6" y="1613" width="85.4" height="19" as="geometry" />
        </mxCell>
        <mxCell id="mcqfTMUdZoglB1hwvuhl-1" value="" style="group" parent="1" vertex="1" connectable="0">
          <mxGeometry x="631.75" y="700" width="70" height="82" as="geometry" />
        </mxCell>
        <mxCell id="iRO7OTy0QqycGShimGxW-126" value="" style="image;aspect=fixed;html=1;points=[];align=center;fontSize=12;image=img/lib/azure2/identity/Azure_Active_Directory.svg;" parent="mcqfTMUdZoglB1hwvuhl-1" vertex="1">
          <mxGeometry width="70" height="64" as="geometry" />
        </mxCell>
        <mxCell id="iRO7OTy0QqycGShimGxW-127" value="Azure AD" style="text;html=1;strokeColor=none;fillColor=none;align=center;verticalAlign=middle;whiteSpace=wrap;rounded=0;" parent="mcqfTMUdZoglB1hwvuhl-1" vertex="1">
          <mxGeometry x="7" y="64" width="55" height="18" as="geometry" />
        </mxCell>
        <mxCell id="mcqfTMUdZoglB1hwvuhl-6" value="" style="image;aspect=fixed;html=1;points=[];align=center;fontSize=12;image=img/lib/azure2/networking/Route_Tables.svg;" parent="1" vertex="1">
          <mxGeometry x="1022" y="932" width="49.17" height="47.63" as="geometry" />
        </mxCell>
        <mxCell id="mcqfTMUdZoglB1hwvuhl-7" value="" style="image;aspect=fixed;html=1;points=[];align=center;fontSize=12;image=img/lib/azure2/networking/Route_Tables.svg;" parent="1" vertex="1">
          <mxGeometry x="1016" y="1711" width="49.17" height="47.63" as="geometry" />
        </mxCell>
        <mxCell id="mcqfTMUdZoglB1hwvuhl-9" value="" style="group" parent="1" vertex="1" connectable="0">
          <mxGeometry x="1030" y="657" width="555.5999999999999" height="271" as="geometry" />
        </mxCell>
        <mxCell id="u3xtsCmXSuKDjjHytYBa-3" value="" style="rounded=1;whiteSpace=wrap;html=1;fillColor=default;fontColor=#ffffff;strokeColor=#006EAF;" parent="mcqfTMUdZoglB1hwvuhl-9" vertex="1">
          <mxGeometry x="4" y="65" width="533" height="48" as="geometry" />
        </mxCell>
        <mxCell id="u3xtsCmXSuKDjjHytYBa-7" value="" style="rounded=1;whiteSpace=wrap;html=1;fillColor=default;fontColor=#ffffff;strokeColor=#006EAF;" parent="mcqfTMUdZoglB1hwvuhl-9" vertex="1">
          <mxGeometry x="6" y="135" width="532" height="48" as="geometry" />
        </mxCell>
        <mxCell id="u3xtsCmXSuKDjjHytYBa-8" value="" style="rounded=1;whiteSpace=wrap;html=1;fillColor=default;fontColor=#ffffff;strokeColor=#006EAF;" parent="mcqfTMUdZoglB1hwvuhl-9" vertex="1">
          <mxGeometry x="6" y="200" width="532" height="48" as="geometry" />
        </mxCell>
        <mxCell id="iRO7OTy0QqycGShimGxW-52" value="" style="rounded=0;whiteSpace=wrap;html=1;fillColor=#f5f5f5;fontColor=#333333;strokeColor=#000000;fillStyle=auto;opacity=50;dashed=1;dashPattern=1 1;strokeWidth=2;" parent="mcqfTMUdZoglB1hwvuhl-9" vertex="1">
          <mxGeometry x="424" y="41" width="119" height="230" as="geometry" />
        </mxCell>
        <mxCell id="iRO7OTy0QqycGShimGxW-80" value="" style="rounded=0;whiteSpace=wrap;html=1;fillColor=#f5f5f5;fontColor=#333333;strokeColor=#000000;fillStyle=auto;opacity=50;dashed=1;dashPattern=1 1;strokeWidth=2;" parent="mcqfTMUdZoglB1hwvuhl-9" vertex="1">
          <mxGeometry y="44" width="119" height="222" as="geometry" />
        </mxCell>
        <mxCell id="iRO7OTy0QqycGShimGxW-51" value="" style="rounded=0;whiteSpace=wrap;html=1;fillColor=#f5f5f5;fontColor=#333333;strokeColor=#000000;fillStyle=auto;opacity=50;dashed=1;dashPattern=1 1;strokeWidth=2;" parent="mcqfTMUdZoglB1hwvuhl-9" vertex="1">
          <mxGeometry x="170" y="44" width="119" height="222" as="geometry" />
        </mxCell>
        <mxCell id="iRO7OTy0QqycGShimGxW-53" value="" style="rounded=1;whiteSpace=wrap;html=1;fillColor=#c1fbbd;strokeColor=none;" parent="mcqfTMUdZoglB1hwvuhl-9" vertex="1">
          <mxGeometry x="350" y="40" width="31" height="231" as="geometry" />
        </mxCell>
        <mxCell id="iRO7OTy0QqycGShimGxW-54" value="" style="image;aspect=fixed;html=1;points=[];align=center;fontSize=12;image=img/lib/azure2/compute/Virtual_Machine.svg;" parent="mcqfTMUdZoglB1hwvuhl-9" vertex="1">
          <mxGeometry x="211.4799999999998" y="139.5" width="42.05" height="39" as="geometry" />
        </mxCell>
        <mxCell id="iRO7OTy0QqycGShimGxW-55" value="" style="image;aspect=fixed;html=1;points=[];align=center;fontSize=12;image=img/lib/azure2/compute/Virtual_Machine.svg;" parent="mcqfTMUdZoglB1hwvuhl-9" vertex="1">
          <mxGeometry x="211.4799999999998" y="204.5" width="42.05" height="39" as="geometry" />
        </mxCell>
        <mxCell id="iRO7OTy0QqycGShimGxW-56" value="" style="image;aspect=fixed;html=1;points=[];align=center;fontSize=12;image=img/lib/azure2/compute/Virtual_Machine.svg;" parent="mcqfTMUdZoglB1hwvuhl-9" vertex="1">
          <mxGeometry x="211.4799999999998" y="70.5" width="42.05" height="39" as="geometry" />
        </mxCell>
        <mxCell id="iRO7OTy0QqycGShimGxW-57" value="" style="image;aspect=fixed;html=1;points=[];align=center;fontSize=12;image=img/lib/azure2/compute/Virtual_Machine.svg;" parent="mcqfTMUdZoglB1hwvuhl-9" vertex="1">
          <mxGeometry x="447.4799999999998" y="139" width="42.05" height="39" as="geometry" />
        </mxCell>
        <mxCell id="iRO7OTy0QqycGShimGxW-58" value="" style="image;aspect=fixed;html=1;points=[];align=center;fontSize=12;image=img/lib/azure2/compute/Virtual_Machine.svg;" parent="mcqfTMUdZoglB1hwvuhl-9" vertex="1">
          <mxGeometry x="447.4799999999998" y="205" width="42.05" height="39" as="geometry" />
        </mxCell>
        <mxCell id="iRO7OTy0QqycGShimGxW-59" value="" style="image;aspect=fixed;html=1;points=[];align=center;fontSize=12;image=img/lib/azure2/compute/Virtual_Machine.svg;" parent="mcqfTMUdZoglB1hwvuhl-9" vertex="1">
          <mxGeometry x="447.4799999999998" y="70" width="42.05" height="39" as="geometry" />
        </mxCell>
        <mxCell id="iRO7OTy0QqycGShimGxW-60" value="" style="image;sketch=0;aspect=fixed;html=1;points=[];align=center;fontSize=12;image=img/lib/mscae/Load_Balancer_feature.svg;" parent="mcqfTMUdZoglB1hwvuhl-9" vertex="1">
          <mxGeometry x="339" y="126.5" width="53" height="53" as="geometry" />
        </mxCell>
        <mxCell id="iRO7OTy0QqycGShimGxW-61" value="" style="endArrow=classic;html=1;rounded=0;entryX=0.017;entryY=0.655;entryDx=0;entryDy=0;entryPerimeter=0;strokeWidth=2;fillColor=#e3c800;strokeColor=#B09500;exitX=1.038;exitY=0.474;exitDx=0;exitDy=0;exitPerimeter=0;" parent="mcqfTMUdZoglB1hwvuhl-9" source="iRO7OTy0QqycGShimGxW-60" target="iRO7OTy0QqycGShimGxW-59" edge="1">
          <mxGeometry width="50" height="50" relative="1" as="geometry">
            <mxPoint x="363.25" y="153" as="sourcePoint" />
            <mxPoint x="360.9308309307771" y="69" as="targetPoint" />
          </mxGeometry>
        </mxCell>
        <mxCell id="iRO7OTy0QqycGShimGxW-62" value="" style="endArrow=classic;html=1;rounded=0;strokeWidth=2;fillColor=#e3c800;strokeColor=#B09500;exitX=1.055;exitY=0.521;exitDx=0;exitDy=0;exitPerimeter=0;entryX=0.026;entryY=0.385;entryDx=0;entryDy=0;entryPerimeter=0;" parent="mcqfTMUdZoglB1hwvuhl-9" source="iRO7OTy0QqycGShimGxW-60" target="iRO7OTy0QqycGShimGxW-57" edge="1">
          <mxGeometry width="50" height="50" relative="1" as="geometry">
            <mxPoint x="375" y="155" as="sourcePoint" />
            <mxPoint x="353.6061499999996" y="154.13200000000006" as="targetPoint" />
          </mxGeometry>
        </mxCell>
        <mxCell id="iRO7OTy0QqycGShimGxW-63" value="" style="endArrow=classic;html=1;rounded=0;entryX=0.031;entryY=0.011;entryDx=0;entryDy=0;entryPerimeter=0;strokeWidth=2;fillColor=#e3c800;strokeColor=#B09500;exitX=1.046;exitY=0.571;exitDx=0;exitDy=0;exitPerimeter=0;" parent="mcqfTMUdZoglB1hwvuhl-9" source="iRO7OTy0QqycGShimGxW-60" target="iRO7OTy0QqycGShimGxW-58" edge="1">
          <mxGeometry width="50" height="50" relative="1" as="geometry">
            <mxPoint x="376" y="163" as="sourcePoint" />
            <mxPoint x="354.1107499999998" y="245.89699999999993" as="targetPoint" />
          </mxGeometry>
        </mxCell>
        <mxCell id="iRO7OTy0QqycGShimGxW-64" value="" style="endArrow=classic;html=1;rounded=0;entryX=0.021;entryY=0.487;entryDx=0;entryDy=0;entryPerimeter=0;strokeWidth=2;fillColor=#e3c800;strokeColor=#B09500;exitX=1.002;exitY=0.31;exitDx=0;exitDy=0;exitPerimeter=0;" parent="mcqfTMUdZoglB1hwvuhl-9" source="iRO7OTy0QqycGShimGxW-54" target="iRO7OTy0QqycGShimGxW-60" edge="1">
          <mxGeometry width="50" height="50" relative="1" as="geometry">
            <mxPoint x="253" y="153" as="sourcePoint" />
            <mxPoint x="259.99775" y="154.08500000000004" as="targetPoint" />
          </mxGeometry>
        </mxCell>
        <mxCell id="iRO7OTy0QqycGShimGxW-65" value="" style="endArrow=classic;html=1;rounded=0;exitX=1.04;exitY=0.013;exitDx=0;exitDy=0;exitPerimeter=0;entryX=-0.023;entryY=0.67;entryDx=0;entryDy=0;entryPerimeter=0;strokeWidth=2;fillColor=#e3c800;strokeColor=#B09500;" parent="mcqfTMUdZoglB1hwvuhl-9" source="iRO7OTy0QqycGShimGxW-55" target="iRO7OTy0QqycGShimGxW-60" edge="1">
          <mxGeometry width="50" height="50" relative="1" as="geometry">
            <mxPoint x="250.31974999999966" y="204.0569999999998" as="sourcePoint" />
            <mxPoint x="269.1700000000001" y="169.5" as="targetPoint" />
          </mxGeometry>
        </mxCell>
        <mxCell id="iRO7OTy0QqycGShimGxW-66" value="" style="endArrow=classic;html=1;rounded=0;entryX=-0.03;entryY=0.323;entryDx=0;entryDy=0;entryPerimeter=0;exitX=1.011;exitY=0.746;exitDx=0;exitDy=0;exitPerimeter=0;strokeWidth=2;fillColor=#e3c800;strokeColor=#B09500;" parent="mcqfTMUdZoglB1hwvuhl-9" source="iRO7OTy0QqycGShimGxW-56" target="iRO7OTy0QqycGShimGxW-60" edge="1">
          <mxGeometry width="50" height="50" relative="1" as="geometry">
            <mxPoint x="250.78229999999985" y="101.6220000000003" as="sourcePoint" />
            <mxPoint x="269.1107499999998" y="137.49700000000007" as="targetPoint" />
          </mxGeometry>
        </mxCell>
        <mxCell id="iRO7OTy0QqycGShimGxW-67" value="" style="image;aspect=fixed;html=1;points=[];align=center;fontSize=12;image=img/lib/azure2/networking/Network_Security_Groups.svg;" parent="mcqfTMUdZoglB1hwvuhl-9" vertex="1">
          <mxGeometry x="529.25" y="30" width="26.35" height="32" as="geometry" />
        </mxCell>
        <mxCell id="iRO7OTy0QqycGShimGxW-68" value="" style="image;aspect=fixed;html=1;points=[];align=center;fontSize=12;image=img/lib/azure2/networking/Network_Security_Groups.svg;" parent="mcqfTMUdZoglB1hwvuhl-9" vertex="1">
          <mxGeometry x="277.27" y="30" width="26.35" height="32" as="geometry" />
        </mxCell>
        <mxCell id="iRO7OTy0QqycGShimGxW-70" value="" style="rounded=1;whiteSpace=wrap;html=1;fillColor=#dae8fc;strokeColor=none;" parent="mcqfTMUdZoglB1hwvuhl-9" vertex="1">
          <mxGeometry x="23" y="53" width="77.25" height="205" as="geometry" />
        </mxCell>
        <mxCell id="iRO7OTy0QqycGShimGxW-71" value="" style="group" parent="mcqfTMUdZoglB1hwvuhl-9" vertex="1" connectable="0">
          <mxGeometry x="30.5" y="178" width="60" height="65" as="geometry" />
        </mxCell>
        <mxCell id="iRO7OTy0QqycGShimGxW-72" value="" style="image;aspect=fixed;html=1;points=[];align=center;fontSize=12;image=img/lib/azure2/networking/Web_Application_Firewall_Policies_WAF.svg;" parent="iRO7OTy0QqycGShimGxW-71" vertex="1">
          <mxGeometry x="9" width="42" height="42" as="geometry" />
        </mxCell>
        <mxCell id="iRO7OTy0QqycGShimGxW-73" value="WAF" style="text;html=1;strokeColor=none;fillColor=none;align=center;verticalAlign=middle;whiteSpace=wrap;rounded=0;" parent="iRO7OTy0QqycGShimGxW-71" vertex="1">
          <mxGeometry y="42" width="60" height="23" as="geometry" />
        </mxCell>
        <mxCell id="iRO7OTy0QqycGShimGxW-74" value="" style="group" parent="mcqfTMUdZoglB1hwvuhl-9" vertex="1" connectable="0">
          <mxGeometry x="30.5" y="71" width="60" height="75" as="geometry" />
        </mxCell>
        <mxCell id="iRO7OTy0QqycGShimGxW-75" value="" style="image;sketch=0;aspect=fixed;html=1;points=[];align=center;fontSize=12;image=img/lib/mscae/Application_Gateway.svg;" parent="iRO7OTy0QqycGShimGxW-74" vertex="1">
          <mxGeometry x="5" width="50" height="50" as="geometry" />
        </mxCell>
        <mxCell id="iRO7OTy0QqycGShimGxW-76" value="AppGW" style="text;html=1;strokeColor=none;fillColor=none;align=center;verticalAlign=middle;whiteSpace=wrap;rounded=0;" parent="iRO7OTy0QqycGShimGxW-74" vertex="1">
          <mxGeometry y="45" width="60" height="30" as="geometry" />
        </mxCell>
        <mxCell id="iRO7OTy0QqycGShimGxW-77" value="" style="endArrow=classic;html=1;rounded=0;exitX=1.004;exitY=0.517;exitDx=0;exitDy=0;exitPerimeter=0;strokeWidth=2;fillColor=#e3c800;strokeColor=#B09500;entryX=-0.083;entryY=0.705;entryDx=0;entryDy=0;entryPerimeter=0;" parent="mcqfTMUdZoglB1hwvuhl-9" target="iRO7OTy0QqycGShimGxW-56" edge="1">
          <mxGeometry width="50" height="50" relative="1" as="geometry">
            <mxPoint x="101.3119999999999" y="156.70900000000006" as="sourcePoint" />
            <mxPoint x="205" y="95" as="targetPoint" />
          </mxGeometry>
        </mxCell>
        <mxCell id="iRO7OTy0QqycGShimGxW-78" value="" style="endArrow=classic;html=1;rounded=0;exitX=1;exitY=0;exitDx=0;exitDy=0;strokeWidth=2;fillColor=#e3c800;strokeColor=#B09500;entryX=0.012;entryY=0.406;entryDx=0;entryDy=0;entryPerimeter=0;" parent="mcqfTMUdZoglB1hwvuhl-9" target="iRO7OTy0QqycGShimGxW-54" edge="1">
          <mxGeometry width="50" height="50" relative="1" as="geometry">
            <mxPoint x="101" y="157" as="sourcePoint" />
            <mxPoint x="192" y="157" as="targetPoint" />
          </mxGeometry>
        </mxCell>
        <mxCell id="iRO7OTy0QqycGShimGxW-79" value="" style="endArrow=classic;html=1;rounded=0;strokeWidth=2;fillColor=#e3c800;strokeColor=#B09500;entryX=-0.005;entryY=0.016;entryDx=0;entryDy=0;entryPerimeter=0;" parent="mcqfTMUdZoglB1hwvuhl-9" target="iRO7OTy0QqycGShimGxW-55" edge="1">
          <mxGeometry width="50" height="50" relative="1" as="geometry">
            <mxPoint x="101" y="157" as="sourcePoint" />
            <mxPoint x="193" y="208" as="targetPoint" />
          </mxGeometry>
        </mxCell>
        <mxCell id="iRO7OTy0QqycGShimGxW-122" value="Internal Load Balancer&lt;br&gt;lb-backend-01" style="text;html=1;strokeColor=none;fillColor=none;align=center;verticalAlign=middle;whiteSpace=wrap;rounded=0;" parent="mcqfTMUdZoglB1hwvuhl-9" vertex="1">
          <mxGeometry x="302.5" width="126" height="30" as="geometry" />
        </mxCell>
        <mxCell id="u3xtsCmXSuKDjjHytYBa-4" value="Zona 1" style="text;html=1;strokeColor=none;fillColor=none;align=center;verticalAlign=middle;whiteSpace=wrap;rounded=0;" parent="mcqfTMUdZoglB1hwvuhl-9" vertex="1">
          <mxGeometry x="492" y="70" width="42" height="30" as="geometry" />
        </mxCell>
        <mxCell id="u3xtsCmXSuKDjjHytYBa-9" value="Zona 2" style="text;html=1;strokeColor=none;fillColor=none;align=center;verticalAlign=middle;whiteSpace=wrap;rounded=0;" parent="mcqfTMUdZoglB1hwvuhl-9" vertex="1">
          <mxGeometry x="492" y="150" width="42" height="30" as="geometry" />
        </mxCell>
        <mxCell id="u3xtsCmXSuKDjjHytYBa-10" value="Zona 3" style="text;html=1;strokeColor=none;fillColor=none;align=center;verticalAlign=middle;whiteSpace=wrap;rounded=0;" parent="mcqfTMUdZoglB1hwvuhl-9" vertex="1">
          <mxGeometry x="492" y="210" width="42" height="30" as="geometry" />
        </mxCell>
        <mxCell id="mcqfTMUdZoglB1hwvuhl-11" value="RT-Spoke01" style="text;html=1;strokeColor=none;fillColor=none;align=center;verticalAlign=middle;whiteSpace=wrap;rounded=0;" parent="1" vertex="1">
          <mxGeometry x="1016" y="982" width="73" height="14" as="geometry" />
        </mxCell>
        <mxCell id="mcqfTMUdZoglB1hwvuhl-12" value="RT-Spoke02" style="text;html=1;strokeColor=none;fillColor=none;align=center;verticalAlign=middle;whiteSpace=wrap;rounded=0;" parent="1" vertex="1">
          <mxGeometry x="1010" y="1761" width="73" height="14" as="geometry" />
        </mxCell>
        <mxCell id="mcqfTMUdZoglB1hwvuhl-14" value="" style="image;aspect=fixed;html=1;points=[];align=center;fontSize=12;image=img/lib/azure2/general/Resource_Groups.svg;" parent="1" vertex="1">
          <mxGeometry x="447.76" y="575" width="49.94" height="47" as="geometry" />
        </mxCell>
        <mxCell id="jFYhZBc2v5GlWPGSJoHk-1" value="RG-CLOUD" style="text;html=1;strokeColor=none;fillColor=none;align=center;verticalAlign=middle;whiteSpace=wrap;rounded=0;" parent="1" vertex="1">
          <mxGeometry x="438.47" y="627" width="68.53" height="18" as="geometry" />
        </mxCell>
        <mxCell id="jFYhZBc2v5GlWPGSJoHk-7" style="edgeStyle=orthogonalEdgeStyle;rounded=0;orthogonalLoop=1;jettySize=auto;html=1;exitX=1.044;exitY=0.669;exitDx=0;exitDy=0;exitPerimeter=0;" parent="1" source="jFYhZBc2v5GlWPGSJoHk-5" target="iRO7OTy0QqycGShimGxW-133" edge="1">
          <mxGeometry relative="1" as="geometry">
            <Array as="points">
              <mxPoint x="1043" y="1181" />
              <mxPoint x="1043" y="1181" />
            </Array>
          </mxGeometry>
        </mxCell>
        <mxCell id="rl9jqkYLnGCRckDXOoiw-1" style="edgeStyle=orthogonalEdgeStyle;rounded=0;orthogonalLoop=1;jettySize=auto;html=1;" edge="1" parent="1" source="jFYhZBc2v5GlWPGSJoHk-5" target="iRO7OTy0QqycGShimGxW-12">
          <mxGeometry relative="1" as="geometry">
            <Array as="points">
              <mxPoint x="780" y="1183" />
            </Array>
          </mxGeometry>
        </mxCell>
        <mxCell id="jFYhZBc2v5GlWPGSJoHk-5" value="" style="image;aspect=fixed;html=1;points=[];align=center;fontSize=12;image=img/lib/azure2/networking/Private_Endpoint.svg;" parent="1" vertex="1">
          <mxGeometry x="827" y="1147.5" width="54.55" height="50" as="geometry" />
        </mxCell>
        <mxCell id="rl9jqkYLnGCRckDXOoiw-5" value="" style="image;aspect=fixed;html=1;points=[];align=center;fontSize=12;image=img/lib/azure2/general/Subscriptions.svg;" vertex="1" parent="1">
          <mxGeometry x="438.47" y="446" width="44" height="71" as="geometry" />
        </mxCell>
        <mxCell id="rl9jqkYLnGCRckDXOoiw-6" value="Peering" style="edgeLabel;html=1;align=center;verticalAlign=middle;resizable=0;points=[];fontSize=14;" vertex="1" connectable="0" parent="1">
          <mxGeometry x="870.8461538461538" y="836" as="geometry" />
        </mxCell>
      </root>
    </mxGraphModel>
  </diagram>
</mxfile>
